# xmcd
#
# Track frame offsets: 
#        150
#        6857
#        12415
#        32645
#        46552
#        55682
#        75332
#        85165
#        104655
#        130700
#        157270
#        175837
#        206767
#        226317
#        240477
#        255975
#        268100
#        292255
#        322155
#
# Disc length: 4402 seconds
#
# Revision: 1
# Processed by: cddbd v1.5.2PL0 Copyright (c) Steve Scherf et al.
# Submitted via: ExactAudioCopy v1.0b2
#
DISCID=fc113013
DTITLE=Various Artist - Space Battleship Yamato Eternal Edition File No.4
DYEAR=2000
DGENRE=Soundtrack
TTITLE0=Space Battleship Yamato (TV Size, Monaural)
TTITLE1=White Comet
TTITLE2=Departure into the Unknown - Search for the Mysterious Message
TTITLE3=Venegeful Demon - Leader Desslar
TTITLE4=War in the Hollow Planetoid
TTITLE5=Telezart Landing Operation
TTITLE6=Desslar's Imprisonment
TTITLE7=Teresa - Love and Parting
TTITLE8=Telezart - Scattered into Space
TTITLE9=Heroes Who Sleep on the 11th Planet
TTITLE10=Fierce Battle in Saturn's Airspace
TTITLE11=Death of Captain Hijikata
TTITLE12=Yamato - Resist to the End
TTITLE13=Fateful Showdown
TTITLE14=Earth Surrenders - Final Gamble
TTITLE15=The Dreadnought Appears
TTITLE16=Love and Determination
TTITLE17=Great Love
TTITLE18=Teresa Forever (TV Size)
EXTD=YEAR: 2000.12.1
EXTT0=
EXTT1=
EXTT2=
EXTT3=
EXTT4=
EXTT5=
EXTT6=
EXTT7=
EXTT8=
EXTT9=
EXTT10=
EXTT11=
EXTT12=
EXTT13=
EXTT14=
EXTT15=
EXTT16=
EXTT17=
EXTT18=
PLAYORDER=
